<?xml version="1.0" encoding="UTF-8" standalone="no"?>
<svg width="26px" height="20px" viewBox="0 0 26 20" version="1.1" xmlns="http://www.w3.org/2000/svg" xmlns:xlink="http://www.w3.org/1999/xlink" xmlns:sketch="http://www.bohemiancoding.com/sketch/ns">
    <!-- Generator: Sketch 3.3.3 (12072) - http://www.bohemiancoding.com/sketch -->
    <title>Fill 71</title>
    <desc>Created with Sketch.</desc>
    <defs></defs>
    <g id="Page-1" stroke="none" stroke-width="1" fill="none" fill-rule="evenodd" sketch:type="MSPage">
        <path d="M25.2405454,0.395433427 C25.2369775,0.36391768 25.2322205,0.334185843 25.221517,0.305048644 C25.2125974,0.277695354 25.2001101,0.253909885 25.1858388,0.229529779 C25.1721621,0.204555036 25.1578909,0.18195884 25.1394571,0.159957281 C25.1198341,0.135577175 25.095454,0.1165488 25.0698846,0.0969257873 C25.0568026,0.0862223262 25.0472884,0.0719510446 25.0324225,0.0630314936 C25.0240976,0.0582743998 25.0145834,0.0582743998 25.0056639,0.0541119426 C24.9789052,0.0392460243 24.949768,0.0315157468 24.9200362,0.0231908326 C24.890899,0.015460555 24.8635457,0.00832491425 24.8338138,0.00594636732 C24.8242997,0.00535173059 24.8153801,0 24.8046766,0 L0.445977549,0 C0.435274088,0 0.426354537,0.00535173059 0.415651076,0.00654100405 C0.387703149,0.00832491425 0.360944496,0.015460555 0.33299657,0.0225961958 C0.302670097,0.0315157468 0.27293826,0.0392460243 0.244395697,0.0541119426 C0.236665419,0.0582743998 0.227151232,0.0582743998 0.218826317,0.0630314936 C0.203365762,0.0719510446 0.195040848,0.0862223262 0.180769567,0.0969257873 C0.155200187,0.1165488 0.131414718,0.135577175 0.111791706,0.159957281 C0.0927633302,0.18195884 0.0784920486,0.204555036 0.0648154038,0.228935142 C0.0505441222,0.253909885 0.0380567509,0.277695354 0.0285425631,0.305048644 C0.0196230122,0.334185843 0.0148659183,0.36391768 0.0112980979,0.395433427 C0.00891955098,0.412677892 0,0.428138447 0,0.445977549 L0,18.6240225 C0,18.8702021 0.200392579,19.07 0.445977549,19.07 L24.8046766,19.07 C25.0508563,19.07 25.2506542,18.8702021 25.2506542,18.6240225 L25.2506542,0.445977549 C25.2506542,0.428138447 25.2429239,0.412677892 25.2405454,0.395433427 L25.2405454,0.395433427 Z M23.984078,0.891955098 C22.6616059,2.84890458 18.4266031,8.52709074 12.6253271,10.5310165 C6.82405114,8.52709074 2.58964297,2.84890458 1.26657624,0.891955098 L23.984078,0.891955098 L23.984078,0.891955098 Z M0.892549735,1.93138011 C2.12582632,3.68674774 4.67087153,6.9043271 8.1768497,9.26503492 C4.60784004,12.0562597 2.02295416,15.5432095 0.892549735,17.2194905 L0.892549735,1.93138011 L0.892549735,1.93138011 Z M1.33079701,18.1780449 C2.22156283,16.8115697 5.03538385,12.7775541 8.97247365,9.77404397 C10.0630374,10.4388478 11.2362557,11.0120776 12.4838036,11.428918 C12.4843982,11.4295126 12.4855875,11.428918 12.4873714,11.4295126 C12.5313745,11.4437839 12.5777562,11.4515142 12.6253271,11.4515142 C12.6717088,11.4515142 12.7180904,11.4437839 12.7626882,11.4295126 C12.7632828,11.428918 12.7644721,11.4295126 12.7656614,11.428918 C14.0138039,11.0120776 15.1846436,10.4394425 16.2746127,9.77582788 C20.2117025,12.779338 23.0249289,16.8121643 23.9162894,18.1780449 L1.33079701,18.1780449 L1.33079701,18.1780449 Z M24.3581045,17.2266261 C23.2312679,15.5533184 20.6445981,12.0622061 17.0708313,9.26681883 C20.5785934,6.90611101 23.1254225,3.68674774 24.3581045,1.93138011 L24.3581045,17.2266261 L24.3581045,17.2266261 Z" id="Fill-71" fill="#000000" sketch:type="MSShapeGroup"></path>
    </g>
</svg>