<?xml version="1.0" encoding="UTF-8" standalone="no"?>
<svg width="130px" height="130px" viewBox="0 0 130 130" version="1.1" xmlns="http://www.w3.org/2000/svg" xmlns:xlink="http://www.w3.org/1999/xlink" xmlns:sketch="http://www.bohemiancoding.com/sketch/ns">
    <!-- Generator: Sketch 3.3.3 (12072) - http://www.bohemiancoding.com/sketch -->
    <title>Fill 72</title>
    <desc>Created with Sketch.</desc>
    <defs></defs>
    <g id="Page-1" stroke="none" stroke-width="1" fill="none" fill-rule="evenodd" sketch:type="MSPage">
        <path d="M12.893919,79.2593525 L57.5357644,79.2593525 C58.8885476,79.2593525 59.983191,78.15971 59.983191,76.8047933 C59.983191,75.4498766 58.8885476,74.3502341 57.5357644,74.3502341 L12.893919,74.3502341 C11.5411358,74.3502341 10.4399573,75.4498766 10.4399573,76.8047933 C10.4399573,78.15971 11.5411358,79.2593525 12.893919,79.2593525 L12.893919,79.2593525 Z M43.6975112,4.90911837 L84.2385283,4.90911837 C88.9667343,4.90911837 92.7832821,8.62695735 92.9303237,13.3789839 C92.9695348,14.7077186 94.0576431,15.7549972 95.3810179,15.7549972 L95.4561725,15.7549972 C96.8089557,15.7124515 97.8676556,14.5800816 97.8317121,13.2251649 C97.5997131,5.80912341 91.6265544,0 84.2385283,0 L43.6975112,0 C42.344728,0 41.246817,1.09964252 41.246817,2.45455919 C41.246817,3.80947586 42.344728,4.90911837 43.6975112,4.90911837 L43.6975112,4.90911837 Z M12.893919,96.4674488 L57.5357644,96.4674488 C58.8885476,96.4674488 59.983191,95.3678063 59.983191,94.0128896 C59.983191,92.6579729 58.8885476,91.5583304 57.5357644,91.5583304 L12.893919,91.5583304 C11.5411358,91.5583304 10.4399573,92.6579729 10.4399573,94.0128896 C10.4399573,95.3678063 11.5411358,96.4674488 12.893919,96.4674488 L12.893919,96.4674488 Z M12.893919,113.688636 L84.281007,113.688636 C85.6305226,113.688636 86.7317012,112.588994 86.7317012,111.234077 C86.7317012,109.87916 85.6305226,108.779518 84.281007,108.779518 L12.893919,108.779518 C11.5411358,108.779518 10.4399573,109.87916 10.4399573,111.234077 C10.4399573,112.588994 11.5411358,113.688636 12.893919,113.688636 L12.893919,113.688636 Z M95.3875531,84.9572026 C94.0347699,84.9572026 92.9335913,86.0568451 92.9335913,87.4117617 L92.9335913,116.365742 C92.9335913,121.176678 89.0320862,125.090882 84.2385283,125.090882 L13.6095217,125.090882 C8.80942872,125.090882 4.90138838,121.176678 4.90138838,116.365742 L4.90138838,44.3031569 C4.90138838,42.9482403 3.80674498,41.8485978 2.45396178,41.8485978 C1.097911,41.8485978 0,42.9482403 0,44.3031569 L0,116.365742 C0,123.883239 6.11039752,130 13.6095217,130 L84.2385283,130 C91.734385,130 97.8382473,123.883239 97.8382473,116.365742 L97.8382473,87.4117617 C97.8382473,86.0568451 96.7403363,84.9572026 95.3875531,84.9572026 L95.3875531,84.9572026 Z M57.5357644,57.1388651 L12.893919,57.1388651 C11.5411358,57.1388651 10.4399573,58.2385076 10.4399573,59.5934243 C10.4399573,60.948341 11.5411358,62.0479835 12.893919,62.0479835 L57.5357644,62.0479835 C58.8885476,62.0479835 59.983191,60.948341 59.983191,59.5934243 C59.983191,58.2385076 58.8885476,57.1388651 57.5357644,57.1388651 L57.5357644,57.1388651 Z M2.45396178,40.6769548 L27.2843953,40.6769548 C34.3456622,40.6769548 40.0998922,34.9201954 40.0998922,27.8412467 L40.0998922,2.45455919 C40.0998922,1.45637178 39.4986552,0.56291224 38.5771942,0.180001007 C37.6557331,-0.189819244 36.5970333,0.0229092191 35.9010361,0.729822265 L0.709067519,36.5009315 C0.0163379613,37.2045718 -0.189520351,38.2583959 0.192787943,39.1682191 C0.575096237,40.0845879 1.46714892,40.6769548 2.45396178,40.6769548 L2.45396178,40.6769548 Z M35.1985038,8.4436836 L35.1985038,27.8412467 C35.1985038,32.210362 31.6433634,35.7678365 27.2843953,35.7678365 L8.3094871,35.7678365 L35.1985038,8.4436836 L35.1985038,8.4436836 Z M118.228023,17.1753688 C112.307146,13.1171643 108.105022,11.3138815 104.615234,11.3138815 C101.615584,11.3138815 99.1714249,12.6589799 97.367714,15.3099038 C97.295827,15.4179044 97.1161094,15.6437239 96.8645048,15.9677257 C96.2632678,16.7368209 95.2993281,17.9804642 94.2438958,19.4204723 L64.9303257,62.2770757 C64.5055387,62.8825336 64.2473989,63.2785358 64.2473989,63.2785358 C64.0121323,63.6385378 63.8716258,64.0574493 63.8487527,64.4894517 L62.3097167,92.759428 C62.267238,93.5743417 62.6266732,94.3630734 63.2801916,94.8539852 C63.7115138,95.1812598 64.231061,95.3481698 64.7604109,95.3481698 C65.0283535,95.3481698 65.2930284,95.3056241 65.5577034,95.2139872 L93.5707718,85.556115 C94.0641782,85.3859322 94.4922328,85.0652032 94.7863161,84.6332007 L123.704508,42.8500579 L128.177841,36.4583858 C133.517087,28.6463421 126.191145,22.6506722 118.228023,17.1753688 L118.228023,17.1753688 Z M67.4006254,89.3852273 L67.5149912,87.3168521 L69.4298002,88.6848598 L67.4006254,89.3852273 L67.4006254,89.3852273 Z M75.1219459,86.7277579 L67.8319476,81.5110015 L68.6030994,67.3661951 C70.4786973,68.2367454 72.6483786,69.7782085 73.3672489,71.7713106 C73.6613322,72.5862243 74.3638645,73.1884094 75.2167061,73.3520467 C75.26572,73.3585922 79.8076732,74.3175067 81.2715546,78.0582549 C81.6015814,78.905896 82.3727332,79.5015357 83.2778562,79.6029908 C83.3039969,79.6062635 85.8592541,79.9957203 88.3654973,82.1622778 L75.1219459,86.7277579 L75.1219459,86.7277579 Z M92.5088043,79.3149892 C89.8620546,76.641156 86.9506299,75.4891496 85.2580171,75.0244197 C83.2027016,71.1985801 79.4351677,69.5262071 77.4354013,68.8782035 C75.7493237,65.6480036 72.573224,63.7858114 70.4786973,62.8432607 L96.7076604,24.3950456 L97.4101927,23.4230401 C100.893446,23.9041337 105.762159,26.0477821 110.268168,29.1437994 C114.859135,32.2987261 118.643007,36.095111 120.332352,39.1649464 L92.5088043,79.3149892 L92.5088043,79.3149892 Z M124.126027,33.6929158 L123.351608,34.8023765 C121.044687,31.5492674 117.433998,28.1128845 113.045622,25.0986859 C108.81409,22.189215 104.445319,20.1077489 100.638574,19.0997432 C100.664715,19.0670158 100.710461,19.0113791 100.733334,18.9819244 C101.10584,18.5008308 101.354177,18.1735562 101.409726,18.0851921 C102.298511,16.7793666 103.26245,16.2229998 104.615234,16.2229998 C106.987506,16.2229998 110.542646,17.8593726 115.460372,21.2237551 C126.295708,28.6692513 125.841513,31.1794472 124.126027,33.6929158 L124.126027,33.6929158 Z" id="Fill-72" fill="#000000" sketch:type="MSShapeGroup"></path>
    </g>
</svg>