<?xml version="1.0" encoding="UTF-8" standalone="no"?>
<svg width="343px" height="57px" viewBox="0 0 343 57" version="1.1" xmlns="http://www.w3.org/2000/svg" xmlns:xlink="http://www.w3.org/1999/xlink" xmlns:sketch="http://www.bohemiancoding.com/sketch/ns">
    <!-- Generator: Sketch 3.3.3 (12072) - http://www.bohemiancoding.com/sketch -->
    <title>Logo</title>
    <desc>Created with Sketch.</desc>
    <defs></defs>
    <g id="Page-1" stroke="none" stroke-width="1" fill="none" fill-rule="evenodd" sketch:type="MSPage">
        <g id="Logo" sketch:type="MSLayerGroup">
            <rect id="Rectangle-1" fill="#FFFFFF" sketch:type="MSShapeGroup" x="0" y="0" width="343" height="56"></rect>
            <text id="Ombudsman-Process" sketch:type="MSTextLayer" font-family="Dosis" font-size="18" font-weight="normal" fill="#000000">
                <tspan x="64" y="51">Raise a Concern Process</tspan>
            </text>
            <text id="Latitude-Financial-S" sketch:type="MSTextLayer" font-family="Dosis" font-size="24" font-weight="bold" fill="#000000">
                <tspan x="65" y="30">Latitude Financial Services</tspan>
            </text>
            <g id="Stack" transform="translate(17.000000, 12.109057)" stroke="#000000" stroke-width="2" sketch:type="MSShapeGroup">
                <path d="M1.72835571,12.1999919 C0.77381121,11.6357568 0.76475474,10.7263044 1.72835571,10.1567161 L17.1826221,1.02163792 C18.1371666,0.457402875 19.6757325,0.45204956 20.6393335,1.02163792 L36.0935999,10.1567161 C37.0481444,10.7209511 37.0572009,11.6304035 36.0935999,12.1999919 L20.6393335,21.33507 C19.684789,21.8993051 18.1462231,21.9046584 17.1826221,21.33507 L1.72835571,12.1999919 Z" id="Path-26"></path>
                <path d="M0.798037723,18.1707837 L17.1906267,27.8605081 C18.1407504,28.42213 19.6897013,28.4173639 20.6322862,27.8605081 L37.033997,18.1707837" id="Path-27"></path>
                <path d="M0.787957411,25.6526303 L17.1896693,35.3155565 C18.1403217,35.8756251 19.6897014,35.8708722 20.6322863,35.3155565 L37.0339988,25.6526303" id="Path-28"></path>
                <path d="M0.787957409,33.0867179 L17.1896693,42.7660687 C18.1403217,43.3270893 19.6897013,43.3223284 20.6322862,42.7660687 L37.0339976,33.0867179" id="Path-29"></path>
            </g>
        </g>
    </g>
</svg>
